<svg width="23" height="23" viewBox="0 0 23 23" fill="none" xmlns="http://www.w3.org/2000/svg">
<rect x="22.1064" y="11.5" width="15.0001" height="15.0001" transform="rotate(135 22.1064 11.5)" fill="white" fill-opacity="0.01"/>
<mask id="mask0_348_20209" style="mask-type:luminance" maskUnits="userSpaceOnUse" x="0" y="0" width="23" height="23">
<rect x="22.1064" y="11.5" width="15.0001" height="15.0001" transform="rotate(135 22.1064 11.5)" fill="white"/>
</mask>
<g mask="url(#mask0_348_20209)">
<path fill-rule="evenodd" clip-rule="evenodd" d="M19.2062 14.4002C18.9721 14.5478 18.7246 14.6559 18.4408 14.6481C18.1199 14.6393 17.8439 14.5219 17.6107 14.3006C17.1322 13.8463 16.6282 13.4235 16.0629 13.0796C15.8257 12.9355 15.5792 12.8067 15.3415 12.6633C14.9869 12.4496 14.8064 12.1294 14.755 11.7197C14.6694 11.0371 14.5701 10.3563 14.471 9.67552C14.4653 9.6364 14.4165 9.58406 14.3773 9.57208C12.859 9.10815 11.3205 8.95631 9.75421 9.29406C9.38266 9.37416 9.01574 9.47511 8.64544 9.56107C8.55896 9.58113 8.53096 9.62397 8.51977 9.70883C8.42811 10.4054 8.33476 11.1018 8.23471 11.7972C8.18161 12.1665 7.98251 12.4502 7.67041 12.647C7.29562 12.8832 6.89877 13.0868 6.53724 13.3412C6.18737 13.5873 5.84572 13.8554 5.54429 14.1576C5.05871 14.6444 4.45423 14.8271 3.79338 14.4002C3.07521 13.6821 2.35705 12.9639 1.63891 12.2458C1.56168 12.0502 1.45791 11.8605 1.41333 11.6578C1.3409 11.3285 1.46508 11.0311 1.63895 10.7542C1.81157 10.5816 1.98422 10.4089 2.15684 10.2363C2.19582 10.2078 2.2359 10.1806 2.27364 10.1505C2.70056 9.81047 3.11402 9.4517 3.55627 9.13298C4.78905 8.24447 6.14408 7.59711 7.60233 7.17478C9.91246 6.50571 12.2443 6.43262 14.5913 6.96698C16.6352 7.43226 18.475 8.32377 20.113 9.63105C20.3599 9.82815 20.5997 10.0343 20.8428 10.2363C21.0154 10.4089 21.188 10.5816 21.3607 10.7542C21.4378 10.9498 21.5417 11.1394 21.586 11.3422C21.6578 11.6712 21.5354 11.9691 21.3607 12.2458C20.6425 12.9639 19.9243 13.6821 19.2062 14.4002Z" fill="white"/>
</g>
</svg>
