<svg width="57" height="57" viewBox="0 0 57 57" fill="none" xmlns="http://www.w3.org/2000/svg">
<path d="M1 21C1 11.5719 1 6.85786 3.92893 3.92893C6.85786 1 11.5719 1 21 1H36C45.4281 1 50.1421 1 53.0711 3.92893C56 6.85786 56 11.5719 56 21V36C56 45.4281 56 50.1421 53.0711 53.0711C50.1421 56 45.4281 56 36 56H21C11.5719 56 6.85786 56 3.92893 53.0711C1 50.1421 1 45.4281 1 36V21Z" fill="white"/>
<path d="M1 21C1 11.5719 1 6.85786 3.92893 3.92893C6.85786 1 11.5719 1 21 1H36C45.4281 1 50.1421 1 53.0711 3.92893C56 6.85786 56 11.5719 56 21V36C56 45.4281 56 50.1421 53.0711 53.0711C50.1421 56 45.4281 56 36 56H21C11.5719 56 6.85786 56 3.92893 53.0711C1 50.1421 1 45.4281 1 36V21Z" stroke="#77C4FE"/>
<path d="M6 26C6 16.5719 6 11.8579 8.92893 8.92893C11.8579 6 16.5719 6 26 6H31C40.4281 6 45.1421 6 48.0711 8.92893C51 11.8579 51 16.5719 51 26V31C51 40.4281 51 45.1421 48.0711 48.0711C45.1421 51 40.4281 51 31 51H26C16.5719 51 11.8579 51 8.92893 48.0711C6 45.1421 6 40.4281 6 31V26Z" fill="#D5EDFF"/>
<path fill-rule="evenodd" clip-rule="evenodd" d="M30.3558 18.5079C30.1328 18.476 29.9087 18.5419 29.7304 18.6838C29.5472 18.8277 29.4326 19.0356 29.4077 19.2684C29.355 19.7391 29.6946 20.1648 30.1646 20.2178C33.4063 20.5795 35.9259 23.1048 36.2904 26.3565C36.3392 26.7922 36.7047 27.121 37.1409 27.121C37.1738 27.121 37.2057 27.119 37.2385 27.115C37.4666 27.09 37.6697 26.9771 37.8132 26.7972C37.9556 26.6174 38.0203 26.3935 37.9944 26.1647C37.5403 22.1075 34.4002 18.9586 30.3558 18.5079ZM30.4181 21.9899C29.942 21.902 29.5048 22.2058 29.4142 22.6705C29.3236 23.1352 29.6283 23.5888 30.0914 23.6798C31.4857 23.9516 32.5623 25.0309 32.8351 26.4299V26.4309C32.9128 26.8336 33.2674 27.1264 33.6757 27.1264C33.7305 27.1264 33.7852 27.1214 33.841 27.1114C34.3041 27.0185 34.6088 26.5658 34.5182 26.1001C34.1109 24.0106 32.5025 22.3967 30.4181 21.9899ZM32.0001 31.5905C32.4515 31.3302 32.9615 31.0362 33.6047 31.173C34.1873 31.2959 36.1731 32.9078 36.7169 33.4665C37.0734 33.8322 37.2716 34.2099 37.3025 34.5877C37.3562 36.0697 35.3425 37.7615 34.976 37.9724C34.489 38.3231 33.9224 38.5 33.286 38.5C32.6357 38.5 31.9106 38.3151 31.1199 37.9464C26.8296 36.1556 20.2755 29.731 18.5427 25.4739C17.8236 23.889 17.8186 22.5819 18.5307 21.5996C18.8145 21.1389 20.4329 19.2132 21.8819 19.2742C22.2673 19.3072 22.6418 19.505 23.0093 19.8648C23.565 20.4094 25.1365 22.4011 25.258 22.9857C25.3925 23.6352 25.0977 24.1519 24.8358 24.6055C24.7799 24.7031 24.7046 24.8188 24.6222 24.9456C24.3092 25.4268 23.8926 26.0674 24.04 26.4763C25.0967 29.0705 27.5376 31.3339 30.133 32.3972C30.5343 32.5431 31.1745 32.1235 31.6542 31.8092C31.7791 31.7273 31.8932 31.6525 31.9893 31.5967L32.0001 31.5905Z" fill="#77C4FE"/>
</svg>
