<svg width="17" height="18" viewBox="0 0 17 18" fill="none" xmlns="http://www.w3.org/2000/svg">
<rect width="16.9145" height="17.2269" fill="white" fill-opacity="0.01"/>
<mask id="mask0_348_20144" style="mask-type:luminance" maskUnits="userSpaceOnUse" x="0" y="0" width="17" height="18">
<rect width="16.9145" height="17.2269" fill="white"/>
</mask>
<g mask="url(#mask0_348_20144)">
<path fill-rule="evenodd" clip-rule="evenodd" d="M8.4366 10.0004C7.5011 10.0003 6.56561 10.0025 5.63017 9.99915C5.29082 9.99788 5.07495 9.73071 5.15406 9.42453C5.20143 9.24103 5.35908 9.10428 5.54829 9.08616C5.60386 9.08085 5.66018 9.08246 5.71621 9.08246C7.54236 9.08229 9.36851 9.08223 11.1947 9.08241C11.5607 9.08241 11.7768 9.24888 11.7825 9.534C11.7884 9.82482 11.5669 10.0004 11.1927 10.0005C10.2739 10.0007 9.35524 10.0005 8.4366 10.0004ZM8.99436 0C9.31531 0.044028 9.63903 0.0734569 9.95675 0.13445C12.6336 0.648302 14.6309 2.10798 15.9342 4.49547C16.7641 6.01556 17.0395 7.65706 16.864 9.37392C16.504 12.8941 13.8309 15.905 10.3812 16.6919C8.86563 17.0376 7.36556 16.993 5.88898 16.504C5.5798 16.4016 5.30352 16.4882 5.01754 16.5372C3.72572 16.7582 2.43581 16.9901 1.14498 17.2168C0.961307 17.249 0.796909 17.2058 0.675558 17.0579C0.543878 16.8974 0.547917 16.7186 0.626798 16.5356C1.01012 15.6461 1.39143 14.7558 1.77972 13.8685C1.82658 13.7615 1.81936 13.688 1.74885 13.5971C1.06771 12.7183 0.582655 11.7393 0.293097 10.6674C0.00342457 9.59516 -0.0721674 8.50519 0.0691492 7.4012C0.271285 5.82243 0.867654 4.40846 1.8698 3.1751C3.20875 1.5273 4.92769 0.50687 7.02228 0.133815C7.35183 0.0750726 7.68628 0.0439126 8.01848 0C8.34381 0 8.66903 0 8.99436 0ZM6.8472 7.69787C6.44425 7.69787 6.04125 7.70346 5.63842 7.69631C5.24707 7.68933 5.01879 7.33543 5.19266 7.01656C5.28464 6.84789 5.4349 6.77097 5.62128 6.77045C6.43277 6.76814 7.2442 6.76636 8.05569 6.77086C8.34582 6.77247 8.55073 6.97282 8.55096 7.23318C8.55107 7.49412 8.3483 7.69141 8.05598 7.69614C7.65315 7.70271 7.25014 7.69781 6.8472 7.69787ZM1.7986 16.1534C1.85457 16.1501 1.88221 16.1513 1.90887 16.1466C3.07835 15.9426 4.24818 15.7402 5.4168 15.5312C5.60976 15.4967 5.78945 15.5015 5.97664 15.5668C7.40083 16.0644 8.8489 16.1367 10.3107 15.7652C14.2048 14.7752 16.6413 10.8859 15.8494 6.93714C14.9755 2.57993 10.4453 -0.0776208 6.21103 1.26895C2.81736 2.3483 0.527903 5.71162 0.986533 9.38112C1.10229 10.3076 1.35959 11.1928 1.82416 12.0035C2.07927 12.4486 2.38545 12.8657 2.68591 13.283C2.83265 13.4869 2.87523 13.6802 2.76525 13.9071C2.70911 14.0228 2.66087 14.1424 2.61014 14.2607C2.34321 14.8827 2.07667 15.5047 1.7986 16.1534Z" fill="black"/>
</g>
</svg>
