<svg width="175" height="174" viewBox="0 0 175 174" fill="none" xmlns="http://www.w3.org/2000/svg">
<g opacity="0.8">
<path d="M168.751 40.4668C169.235 41.3014 169.707 42.1442 170.166 42.9948C169.333 42.4526 168.776 41.5251 168.751 40.4668Z" fill="#77C4FE"/>
<path d="M151.64 19.0154C153.096 20.3742 154.509 21.7786 155.875 23.2265C155.347 24.1976 154.313 24.8571 153.125 24.8571C151.399 24.8571 150 23.466 150 21.75C150 20.5684 150.663 19.5408 151.64 19.0154Z" fill="#77C4FE"/>
<path d="M131.758 4.80603C132.614 5.26242 133.461 5.73164 134.301 6.21342C133.236 6.18872 132.303 5.6348 131.758 4.80603Z" fill="#77C4FE"/>
<path d="M40.6993 6.21342C41.5387 5.73164 42.3864 5.26242 43.2419 4.80603C42.6966 5.6348 41.7638 6.18872 40.6993 6.21342Z" fill="#77C4FE"/>
<path d="M19.1247 23.2265C20.4913 21.7786 21.9038 20.3742 23.36 19.0154C24.3366 19.5408 25 20.5684 25 21.75C25 23.466 23.6009 24.8571 21.875 24.8571C20.6866 24.8571 19.6532 24.1976 19.1247 23.2265Z" fill="#77C4FE"/>
<path d="M4.83365 42.9948C5.29267 42.1442 5.76458 41.3014 6.24913 40.4668C6.22429 41.5251 5.66718 42.4526 4.83365 42.9948Z" fill="#77C4FE"/>
<path d="M170.166 131.005C169.707 131.856 169.235 132.699 168.751 133.533C168.776 132.475 169.333 131.547 170.166 131.005Z" fill="#77C4FE"/>
<path d="M155.875 150.773C155.347 149.802 154.313 149.143 153.125 149.143C151.399 149.143 150 150.534 150 152.25C150 153.432 150.663 154.459 151.64 154.985C153.096 153.626 154.509 152.221 155.875 150.773Z" fill="#77C4FE"/>
<path d="M134.301 167.787C133.236 167.811 132.303 168.365 131.758 169.194C132.614 168.738 133.461 168.268 134.301 167.787Z" fill="#77C4FE"/>
<path d="M43.2419 169.194C42.6966 168.365 41.7638 167.811 40.6993 167.787C41.5387 168.268 42.3864 168.738 43.2419 169.194Z" fill="#77C4FE"/>
<path d="M23.36 154.985C24.3366 154.459 25 153.432 25 152.25C25 150.534 23.6009 149.143 21.875 149.143C20.6866 149.143 19.6532 149.802 19.1247 150.773C20.4913 152.221 21.9038 153.626 23.36 154.985Z" fill="#77C4FE"/>
<path d="M6.24913 133.533C6.22429 132.475 5.66718 131.547 4.83365 131.005C5.29267 131.856 5.76458 132.699 6.24913 133.533Z" fill="#77C4FE"/>
<path d="M62.5 3.10714C62.5 4.82317 61.1009 6.21429 59.375 6.21429C57.6491 6.21429 56.25 4.82317 56.25 3.10714C56.25 1.39112 57.6491 0 59.375 0C61.1009 0 62.5 1.39112 62.5 3.10714Z" fill="#77C4FE"/>
<path d="M81.25 3.10714C81.25 4.82317 79.8509 6.21429 78.125 6.21429C76.3991 6.21429 75 4.82317 75 3.10714C75 1.39112 76.3991 0 78.125 0C79.8509 0 81.25 1.39112 81.25 3.10714Z" fill="#77C4FE"/>
<path d="M100 3.10714C100 4.82317 98.6009 6.21429 96.875 6.21429C95.1491 6.21429 93.75 4.82317 93.75 3.10714C93.75 1.39112 95.1491 0 96.875 0C98.6009 0 100 1.39112 100 3.10714Z" fill="#77C4FE"/>
<path d="M118.75 3.10714C118.75 4.82317 117.351 6.21429 115.625 6.21429C113.899 6.21429 112.5 4.82317 112.5 3.10714C112.5 1.39112 113.899 0 115.625 0C117.351 0 118.75 1.39112 118.75 3.10714Z" fill="#77C4FE"/>
<path d="M43.75 21.75C43.75 23.466 42.3509 24.8571 40.625 24.8571C38.8991 24.8571 37.5 23.466 37.5 21.75C37.5 20.034 38.8991 18.6429 40.625 18.6429C42.3509 18.6429 43.75 20.034 43.75 21.75Z" fill="#77C4FE"/>
<path d="M62.5 21.75C62.5 23.466 61.1009 24.8571 59.375 24.8571C57.6491 24.8571 56.25 23.466 56.25 21.75C56.25 20.034 57.6491 18.6429 59.375 18.6429C61.1009 18.6429 62.5 20.034 62.5 21.75Z" fill="#77C4FE"/>
<path d="M81.25 21.75C81.25 23.466 79.8509 24.8571 78.125 24.8571C76.3991 24.8571 75 23.466 75 21.75C75 20.034 76.3991 18.6429 78.125 18.6429C79.8509 18.6429 81.25 20.034 81.25 21.75Z" fill="#77C4FE"/>
<path d="M100 21.75C100 23.466 98.6009 24.8571 96.875 24.8571C95.1491 24.8571 93.75 23.466 93.75 21.75C93.75 20.034 95.1491 18.6429 96.875 18.6429C98.6009 18.6429 100 20.034 100 21.75Z" fill="#77C4FE"/>
<path d="M118.75 21.75C118.75 23.466 117.351 24.8571 115.625 24.8571C113.899 24.8571 112.5 23.466 112.5 21.75C112.5 20.034 113.899 18.6429 115.625 18.6429C117.351 18.6429 118.75 20.034 118.75 21.75Z" fill="#77C4FE"/>
<path d="M137.5 21.75C137.5 23.466 136.101 24.8571 134.375 24.8571C132.649 24.8571 131.25 23.466 131.25 21.75C131.25 20.034 132.649 18.6429 134.375 18.6429C136.101 18.6429 137.5 20.034 137.5 21.75Z" fill="#77C4FE"/>
<path d="M25 40.3929C25 42.1089 23.6009 43.5 21.875 43.5C20.1491 43.5 18.75 42.1089 18.75 40.3929C18.75 38.6768 20.1491 37.2857 21.875 37.2857C23.6009 37.2857 25 38.6768 25 40.3929Z" fill="#77C4FE"/>
<path d="M43.75 40.3929C43.75 42.1089 42.3509 43.5 40.625 43.5C38.8991 43.5 37.5 42.1089 37.5 40.3929C37.5 38.6768 38.8991 37.2857 40.625 37.2857C42.3509 37.2857 43.75 38.6768 43.75 40.3929Z" fill="#77C4FE"/>
<path d="M62.5 40.3929C62.5 42.1089 61.1009 43.5 59.375 43.5C57.6491 43.5 56.25 42.1089 56.25 40.3929C56.25 38.6768 57.6491 37.2857 59.375 37.2857C61.1009 37.2857 62.5 38.6768 62.5 40.3929Z" fill="#77C4FE"/>
<path d="M81.25 40.3929C81.25 42.1089 79.8509 43.5 78.125 43.5C76.3991 43.5 75 42.1089 75 40.3929C75 38.6768 76.3991 37.2857 78.125 37.2857C79.8509 37.2857 81.25 38.6768 81.25 40.3929Z" fill="#77C4FE"/>
<path d="M100 40.3929C100 42.1089 98.6009 43.5 96.875 43.5C95.1491 43.5 93.75 42.1089 93.75 40.3929C93.75 38.6768 95.1491 37.2857 96.875 37.2857C98.6009 37.2857 100 38.6768 100 40.3929Z" fill="#77C4FE"/>
<path d="M118.75 40.3929C118.75 42.1089 117.351 43.5 115.625 43.5C113.899 43.5 112.5 42.1089 112.5 40.3929C112.5 38.6768 113.899 37.2857 115.625 37.2857C117.351 37.2857 118.75 38.6768 118.75 40.3929Z" fill="#77C4FE"/>
<path d="M137.5 40.3929C137.5 42.1089 136.101 43.5 134.375 43.5C132.649 43.5 131.25 42.1089 131.25 40.3929C131.25 38.6768 132.649 37.2857 134.375 37.2857C136.101 37.2857 137.5 38.6768 137.5 40.3929Z" fill="#77C4FE"/>
<path d="M156.25 40.3929C156.25 42.1089 154.851 43.5 153.125 43.5C151.399 43.5 150 42.1089 150 40.3929C150 38.6768 151.399 37.2857 153.125 37.2857C154.851 37.2857 156.25 38.6768 156.25 40.3929Z" fill="#77C4FE"/>
<path d="M6.25 59.0357C6.25 60.7517 4.85089 62.1429 3.125 62.1429C1.39911 62.1429 0 60.7517 0 59.0357C0 57.3197 1.39911 55.9286 3.125 55.9286C4.85089 55.9286 6.25 57.3197 6.25 59.0357Z" fill="#77C4FE"/>
<path d="M25 59.0357C25 60.7517 23.6009 62.1429 21.875 62.1429C20.1491 62.1429 18.75 60.7517 18.75 59.0357C18.75 57.3197 20.1491 55.9286 21.875 55.9286C23.6009 55.9286 25 57.3197 25 59.0357Z" fill="#77C4FE"/>
<path d="M43.75 59.0357C43.75 60.7517 42.3509 62.1429 40.625 62.1429C38.8991 62.1429 37.5 60.7517 37.5 59.0357C37.5 57.3197 38.8991 55.9286 40.625 55.9286C42.3509 55.9286 43.75 57.3197 43.75 59.0357Z" fill="#77C4FE"/>
<path d="M62.5 59.0357C62.5 60.7517 61.1009 62.1429 59.375 62.1429C57.6491 62.1429 56.25 60.7517 56.25 59.0357C56.25 57.3197 57.6491 55.9286 59.375 55.9286C61.1009 55.9286 62.5 57.3197 62.5 59.0357Z" fill="#77C4FE"/>
<path d="M81.25 59.0357C81.25 60.7517 79.8509 62.1429 78.125 62.1429C76.3991 62.1429 75 60.7517 75 59.0357C75 57.3197 76.3991 55.9286 78.125 55.9286C79.8509 55.9286 81.25 57.3197 81.25 59.0357Z" fill="#77C4FE"/>
<path d="M100 59.0357C100 60.7517 98.6009 62.1429 96.875 62.1429C95.1491 62.1429 93.75 60.7517 93.75 59.0357C93.75 57.3197 95.1491 55.9286 96.875 55.9286C98.6009 55.9286 100 57.3197 100 59.0357Z" fill="#77C4FE"/>
<path d="M118.75 59.0357C118.75 60.7517 117.351 62.1429 115.625 62.1429C113.899 62.1429 112.5 60.7517 112.5 59.0357C112.5 57.3197 113.899 55.9286 115.625 55.9286C117.351 55.9286 118.75 57.3197 118.75 59.0357Z" fill="#77C4FE"/>
<path d="M137.5 59.0357C137.5 60.7517 136.101 62.1429 134.375 62.1429C132.649 62.1429 131.25 60.7517 131.25 59.0357C131.25 57.3197 132.649 55.9286 134.375 55.9286C136.101 55.9286 137.5 57.3197 137.5 59.0357Z" fill="#77C4FE"/>
<path d="M156.25 59.0357C156.25 60.7517 154.851 62.1429 153.125 62.1429C151.399 62.1429 150 60.7517 150 59.0357C150 57.3197 151.399 55.9286 153.125 55.9286C154.851 55.9286 156.25 57.3197 156.25 59.0357Z" fill="#77C4FE"/>
<path d="M175 59.0357C175 60.7517 173.601 62.1429 171.875 62.1429C170.149 62.1429 168.75 60.7517 168.75 59.0357C168.75 57.3197 170.149 55.9286 171.875 55.9286C173.601 55.9286 175 57.3197 175 59.0357Z" fill="#77C4FE"/>
<path d="M6.25 77.6786C6.25 79.3946 4.85089 80.7857 3.125 80.7857C1.39911 80.7857 0 79.3946 0 77.6786C0 75.9625 1.39911 74.5714 3.125 74.5714C4.85089 74.5714 6.25 75.9625 6.25 77.6786Z" fill="#77C4FE"/>
<path d="M25 77.6786C25 79.3946 23.6009 80.7857 21.875 80.7857C20.1491 80.7857 18.75 79.3946 18.75 77.6786C18.75 75.9625 20.1491 74.5714 21.875 74.5714C23.6009 74.5714 25 75.9625 25 77.6786Z" fill="#77C4FE"/>
<path d="M43.75 77.6786C43.75 79.3946 42.3509 80.7857 40.625 80.7857C38.8991 80.7857 37.5 79.3946 37.5 77.6786C37.5 75.9625 38.8991 74.5714 40.625 74.5714C42.3509 74.5714 43.75 75.9625 43.75 77.6786Z" fill="#77C4FE"/>
<path d="M62.5 77.6786C62.5 79.3946 61.1009 80.7857 59.375 80.7857C57.6491 80.7857 56.25 79.3946 56.25 77.6786C56.25 75.9625 57.6491 74.5714 59.375 74.5714C61.1009 74.5714 62.5 75.9625 62.5 77.6786Z" fill="#77C4FE"/>
<path d="M81.25 77.6786C81.25 79.3946 79.8509 80.7857 78.125 80.7857C76.3991 80.7857 75 79.3946 75 77.6786C75 75.9625 76.3991 74.5714 78.125 74.5714C79.8509 74.5714 81.25 75.9625 81.25 77.6786Z" fill="#77C4FE"/>
<path d="M100 77.6786C100 79.3946 98.6009 80.7857 96.875 80.7857C95.1491 80.7857 93.75 79.3946 93.75 77.6786C93.75 75.9625 95.1491 74.5714 96.875 74.5714C98.6009 74.5714 100 75.9625 100 77.6786Z" fill="#77C4FE"/>
<path d="M118.75 77.6786C118.75 79.3946 117.351 80.7857 115.625 80.7857C113.899 80.7857 112.5 79.3946 112.5 77.6786C112.5 75.9625 113.899 74.5714 115.625 74.5714C117.351 74.5714 118.75 75.9625 118.75 77.6786Z" fill="#77C4FE"/>
<path d="M137.5 77.6786C137.5 79.3946 136.101 80.7857 134.375 80.7857C132.649 80.7857 131.25 79.3946 131.25 77.6786C131.25 75.9625 132.649 74.5714 134.375 74.5714C136.101 74.5714 137.5 75.9625 137.5 77.6786Z" fill="#77C4FE"/>
<path d="M156.25 77.6786C156.25 79.3946 154.851 80.7857 153.125 80.7857C151.399 80.7857 150 79.3946 150 77.6786C150 75.9625 151.399 74.5714 153.125 74.5714C154.851 74.5714 156.25 75.9625 156.25 77.6786Z" fill="#77C4FE"/>
<path d="M175 77.6786C175 79.3946 173.601 80.7857 171.875 80.7857C170.149 80.7857 168.75 79.3946 168.75 77.6786C168.75 75.9625 170.149 74.5714 171.875 74.5714C173.601 74.5714 175 75.9625 175 77.6786Z" fill="#77C4FE"/>
<path d="M6.25 96.3214C6.25 98.0375 4.85089 99.4286 3.125 99.4286C1.39911 99.4286 0 98.0375 0 96.3214C0 94.6054 1.39911 93.2143 3.125 93.2143C4.85089 93.2143 6.25 94.6054 6.25 96.3214Z" fill="#77C4FE"/>
<path d="M25 96.3214C25 98.0375 23.6009 99.4286 21.875 99.4286C20.1491 99.4286 18.75 98.0375 18.75 96.3214C18.75 94.6054 20.1491 93.2143 21.875 93.2143C23.6009 93.2143 25 94.6054 25 96.3214Z" fill="#77C4FE"/>
<path d="M43.75 96.3214C43.75 98.0375 42.3509 99.4286 40.625 99.4286C38.8991 99.4286 37.5 98.0375 37.5 96.3214C37.5 94.6054 38.8991 93.2143 40.625 93.2143C42.3509 93.2143 43.75 94.6054 43.75 96.3214Z" fill="#77C4FE"/>
<path d="M62.5 96.3214C62.5 98.0375 61.1009 99.4286 59.375 99.4286C57.6491 99.4286 56.25 98.0375 56.25 96.3214C56.25 94.6054 57.6491 93.2143 59.375 93.2143C61.1009 93.2143 62.5 94.6054 62.5 96.3214Z" fill="#77C4FE"/>
<path d="M81.25 96.3214C81.25 98.0375 79.8509 99.4286 78.125 99.4286C76.3991 99.4286 75 98.0375 75 96.3214C75 94.6054 76.3991 93.2143 78.125 93.2143C79.8509 93.2143 81.25 94.6054 81.25 96.3214Z" fill="#77C4FE"/>
<path d="M100 96.3214C100 98.0375 98.6009 99.4286 96.875 99.4286C95.1491 99.4286 93.75 98.0375 93.75 96.3214C93.75 94.6054 95.1491 93.2143 96.875 93.2143C98.6009 93.2143 100 94.6054 100 96.3214Z" fill="#77C4FE"/>
<path d="M118.75 96.3214C118.75 98.0375 117.351 99.4286 115.625 99.4286C113.899 99.4286 112.5 98.0375 112.5 96.3214C112.5 94.6054 113.899 93.2143 115.625 93.2143C117.351 93.2143 118.75 94.6054 118.75 96.3214Z" fill="#77C4FE"/>
<path d="M137.5 96.3214C137.5 98.0375 136.101 99.4286 134.375 99.4286C132.649 99.4286 131.25 98.0375 131.25 96.3214C131.25 94.6054 132.649 93.2143 134.375 93.2143C136.101 93.2143 137.5 94.6054 137.5 96.3214Z" fill="#77C4FE"/>
<path d="M156.25 96.3214C156.25 98.0375 154.851 99.4286 153.125 99.4286C151.399 99.4286 150 98.0375 150 96.3214C150 94.6054 151.399 93.2143 153.125 93.2143C154.851 93.2143 156.25 94.6054 156.25 96.3214Z" fill="#77C4FE"/>
<path d="M175 96.3214C175 98.0375 173.601 99.4286 171.875 99.4286C170.149 99.4286 168.75 98.0375 168.75 96.3214C168.75 94.6054 170.149 93.2143 171.875 93.2143C173.601 93.2143 175 94.6054 175 96.3214Z" fill="#77C4FE"/>
<path d="M6.25 114.964C6.25 116.68 4.85089 118.071 3.125 118.071C1.39911 118.071 0 116.68 0 114.964C0 113.248 1.39911 111.857 3.125 111.857C4.85089 111.857 6.25 113.248 6.25 114.964Z" fill="#77C4FE"/>
<path d="M25 114.964C25 116.68 23.6009 118.071 21.875 118.071C20.1491 118.071 18.75 116.68 18.75 114.964C18.75 113.248 20.1491 111.857 21.875 111.857C23.6009 111.857 25 113.248 25 114.964Z" fill="#77C4FE"/>
<path d="M43.75 114.964C43.75 116.68 42.3509 118.071 40.625 118.071C38.8991 118.071 37.5 116.68 37.5 114.964C37.5 113.248 38.8991 111.857 40.625 111.857C42.3509 111.857 43.75 113.248 43.75 114.964Z" fill="#77C4FE"/>
<path d="M62.5 114.964C62.5 116.68 61.1009 118.071 59.375 118.071C57.6491 118.071 56.25 116.68 56.25 114.964C56.25 113.248 57.6491 111.857 59.375 111.857C61.1009 111.857 62.5 113.248 62.5 114.964Z" fill="#77C4FE"/>
<path d="M81.25 114.964C81.25 116.68 79.8509 118.071 78.125 118.071C76.3991 118.071 75 116.68 75 114.964C75 113.248 76.3991 111.857 78.125 111.857C79.8509 111.857 81.25 113.248 81.25 114.964Z" fill="#77C4FE"/>
<path d="M100 114.964C100 116.68 98.6009 118.071 96.875 118.071C95.1491 118.071 93.75 116.68 93.75 114.964C93.75 113.248 95.1491 111.857 96.875 111.857C98.6009 111.857 100 113.248 100 114.964Z" fill="#77C4FE"/>
<path d="M118.75 114.964C118.75 116.68 117.351 118.071 115.625 118.071C113.899 118.071 112.5 116.68 112.5 114.964C112.5 113.248 113.899 111.857 115.625 111.857C117.351 111.857 118.75 113.248 118.75 114.964Z" fill="#77C4FE"/>
<path d="M137.5 114.964C137.5 116.68 136.101 118.071 134.375 118.071C132.649 118.071 131.25 116.68 131.25 114.964C131.25 113.248 132.649 111.857 134.375 111.857C136.101 111.857 137.5 113.248 137.5 114.964Z" fill="#77C4FE"/>
<path d="M156.25 114.964C156.25 116.68 154.851 118.071 153.125 118.071C151.399 118.071 150 116.68 150 114.964C150 113.248 151.399 111.857 153.125 111.857C154.851 111.857 156.25 113.248 156.25 114.964Z" fill="#77C4FE"/>
<path d="M175 114.964C175 116.68 173.601 118.071 171.875 118.071C170.149 118.071 168.75 116.68 168.75 114.964C168.75 113.248 170.149 111.857 171.875 111.857C173.601 111.857 175 113.248 175 114.964Z" fill="#77C4FE"/>
<path d="M25 133.607C25 135.323 23.6009 136.714 21.875 136.714C20.1491 136.714 18.75 135.323 18.75 133.607C18.75 131.891 20.1491 130.5 21.875 130.5C23.6009 130.5 25 131.891 25 133.607Z" fill="#77C4FE"/>
<path d="M43.75 133.607C43.75 135.323 42.3509 136.714 40.625 136.714C38.8991 136.714 37.5 135.323 37.5 133.607C37.5 131.891 38.8991 130.5 40.625 130.5C42.3509 130.5 43.75 131.891 43.75 133.607Z" fill="#77C4FE"/>
<path d="M62.5 133.607C62.5 135.323 61.1009 136.714 59.375 136.714C57.6491 136.714 56.25 135.323 56.25 133.607C56.25 131.891 57.6491 130.5 59.375 130.5C61.1009 130.5 62.5 131.891 62.5 133.607Z" fill="#77C4FE"/>
<path d="M81.25 133.607C81.25 135.323 79.8509 136.714 78.125 136.714C76.3991 136.714 75 135.323 75 133.607C75 131.891 76.3991 130.5 78.125 130.5C79.8509 130.5 81.25 131.891 81.25 133.607Z" fill="#77C4FE"/>
<path d="M100 133.607C100 135.323 98.6009 136.714 96.875 136.714C95.1491 136.714 93.75 135.323 93.75 133.607C93.75 131.891 95.1491 130.5 96.875 130.5C98.6009 130.5 100 131.891 100 133.607Z" fill="#77C4FE"/>
<path d="M118.75 133.607C118.75 135.323 117.351 136.714 115.625 136.714C113.899 136.714 112.5 135.323 112.5 133.607C112.5 131.891 113.899 130.5 115.625 130.5C117.351 130.5 118.75 131.891 118.75 133.607Z" fill="#77C4FE"/>
<path d="M137.5 133.607C137.5 135.323 136.101 136.714 134.375 136.714C132.649 136.714 131.25 135.323 131.25 133.607C131.25 131.891 132.649 130.5 134.375 130.5C136.101 130.5 137.5 131.891 137.5 133.607Z" fill="#77C4FE"/>
<path d="M156.25 133.607C156.25 135.323 154.851 136.714 153.125 136.714C151.399 136.714 150 135.323 150 133.607C150 131.891 151.399 130.5 153.125 130.5C154.851 130.5 156.25 131.891 156.25 133.607Z" fill="#77C4FE"/>
<path d="M43.75 152.25C43.75 153.966 42.3509 155.357 40.625 155.357C38.8991 155.357 37.5 153.966 37.5 152.25C37.5 150.534 38.8991 149.143 40.625 149.143C42.3509 149.143 43.75 150.534 43.75 152.25Z" fill="#77C4FE"/>
<path d="M62.5 152.25C62.5 153.966 61.1009 155.357 59.375 155.357C57.6491 155.357 56.25 153.966 56.25 152.25C56.25 150.534 57.6491 149.143 59.375 149.143C61.1009 149.143 62.5 150.534 62.5 152.25Z" fill="#77C4FE"/>
<path d="M81.25 152.25C81.25 153.966 79.8509 155.357 78.125 155.357C76.3991 155.357 75 153.966 75 152.25C75 150.534 76.3991 149.143 78.125 149.143C79.8509 149.143 81.25 150.534 81.25 152.25Z" fill="#77C4FE"/>
<path d="M100 152.25C100 153.966 98.6009 155.357 96.875 155.357C95.1491 155.357 93.75 153.966 93.75 152.25C93.75 150.534 95.1491 149.143 96.875 149.143C98.6009 149.143 100 150.534 100 152.25Z" fill="#77C4FE"/>
<path d="M118.75 152.25C118.75 153.966 117.351 155.357 115.625 155.357C113.899 155.357 112.5 153.966 112.5 152.25C112.5 150.534 113.899 149.143 115.625 149.143C117.351 149.143 118.75 150.534 118.75 152.25Z" fill="#77C4FE"/>
<path d="M137.5 152.25C137.5 153.966 136.101 155.357 134.375 155.357C132.649 155.357 131.25 153.966 131.25 152.25C131.25 150.534 132.649 149.143 134.375 149.143C136.101 149.143 137.5 150.534 137.5 152.25Z" fill="#77C4FE"/>
<path d="M62.5 170.893C62.5 172.609 61.1009 174 59.375 174C57.6491 174 56.25 172.609 56.25 170.893C56.25 169.177 57.6491 167.786 59.375 167.786C61.1009 167.786 62.5 169.177 62.5 170.893Z" fill="#77C4FE"/>
<path d="M81.25 170.893C81.25 172.609 79.8509 174 78.125 174C76.3991 174 75 172.609 75 170.893C75 169.177 76.3991 167.786 78.125 167.786C79.8509 167.786 81.25 169.177 81.25 170.893Z" fill="#77C4FE"/>
<path d="M100 170.893C100 172.609 98.6009 174 96.875 174C95.1491 174 93.75 172.609 93.75 170.893C93.75 169.177 95.1491 167.786 96.875 167.786C98.6009 167.786 100 169.177 100 170.893Z" fill="#77C4FE"/>
<path d="M118.75 170.893C118.75 172.609 117.351 174 115.625 174C113.899 174 112.5 172.609 112.5 170.893C112.5 169.177 113.899 167.786 115.625 167.786C117.351 167.786 118.75 169.177 118.75 170.893Z" fill="#77C4FE"/>
</g>
</svg>
