<svg width="16" height="20" viewBox="0 0 16 20" fill="none" xmlns="http://www.w3.org/2000/svg">
<path fill-rule="evenodd" clip-rule="evenodd" d="M3.30652 5.75828L3.64958 8.84584L2.95535 8.90126C1.98726 8.97855 1.19676 9.70628 1.03982 10.6647C0.678132 12.8736 0.678132 15.1266 1.03982 17.3355C1.19676 18.2939 1.98726 19.0217 2.95535 19.0989L4.45148 19.2184C6.81362 19.407 9.18704 19.407 11.5492 19.2184L13.0453 19.0989C14.0134 19.0217 14.8039 18.2939 14.9608 17.3355C15.3225 15.1266 15.3225 12.8736 14.9608 10.6647C14.8039 9.70628 14.0134 8.97855 13.0453 8.90126L12.351 8.84583L12.694 5.75828C12.7345 5.3943 12.7345 5.02696 12.694 4.66298L12.6713 4.45809C12.4298 2.2847 10.7212 0.565038 8.54941 0.309534C8.18458 0.266614 7.81598 0.266614 7.45116 0.309534C5.27937 0.565038 3.57077 2.2847 3.32928 4.45809L3.30652 4.66298C3.26607 5.02696 3.26607 5.3943 3.30652 5.75828ZM8.37414 1.79926C8.12576 1.77004 7.8748 1.77004 7.62642 1.79926C6.14779 1.97322 4.98452 3.14402 4.82011 4.62373L4.79734 4.82863C4.76913 5.08252 4.76913 5.33875 4.79734 5.59263L5.14614 8.73182C7.04695 8.60992 8.95362 8.60991 10.8544 8.73182L11.2032 5.59263C11.2314 5.33874 11.2314 5.08252 11.2032 4.82863L11.1805 4.62373C11.016 3.14402 9.85277 1.97322 8.37414 1.79926ZM8.00031 12.5001C7.17188 12.5001 6.50031 13.1717 6.50031 14.0001C6.50031 14.8285 7.17188 15.5001 8.00031 15.5001C8.82873 15.5001 9.50031 14.8285 9.50031 14.0001C9.50031 13.1717 8.82873 12.5001 8.00031 12.5001Z" fill="#414141"/>
</svg>
