<svg width="13" height="18" viewBox="0 0 13 18" fill="none" xmlns="http://www.w3.org/2000/svg">
<rect x="0.162109" width="12.6751" height="17.2039" fill="white" fill-opacity="0.01"/>
<mask id="mask0_348_20168" style="mask-type:luminance" maskUnits="userSpaceOnUse" x="0" y="0" width="13" height="18">
<rect x="0.162109" width="12.6751" height="17.2039" fill="white"/>
</mask>
<g mask="url(#mask0_348_20168)">
<path fill-rule="evenodd" clip-rule="evenodd" d="M3.22997 5.80187C3.22997 4.92563 3.229 4.04945 3.23018 3.17321C3.23264 1.32702 4.5538 0.0179351 6.39722 0.000279276C7.21804 -0.00760187 7.97396 0.149714 8.62047 0.676778C9.34973 1.27129 9.75648 2.04283 9.76421 2.98646C9.77956 4.86668 9.7834 6.7473 9.76436 8.62752C9.74798 10.2388 8.45302 11.5379 6.84312 11.6078C6.1047 11.6398 5.38398 11.5914 4.73471 11.1864C3.78631 10.5948 3.26329 9.74383 3.23617 8.62235C3.2135 7.6827 3.23151 6.74208 3.23151 5.80187C3.231 5.80187 3.23049 5.80187 3.22997 5.80187ZM5.87666 15.9748C5.87666 15.3707 5.87666 14.7848 5.87666 14.2177C5.40149 14.0999 4.91787 14.0257 4.46742 13.8609C2.12355 13.0031 0.712616 11.3364 0.245531 8.88315C0.184938 8.56498 0.174652 8.23541 0.162676 7.91029C0.148756 7.53322 0.392611 7.26751 0.737334 7.254C1.10294 7.23962 1.37934 7.49443 1.384 7.88531C1.39285 8.63213 1.54832 9.34276 1.85983 10.0203C2.78925 12.0418 4.95922 13.2287 7.18871 12.935C9.37409 12.6471 11.1653 10.9308 11.5311 8.76273C11.5819 8.46156 11.5885 8.15286 11.6153 7.8477C11.6412 7.55251 11.8278 7.32324 12.0898 7.26541C12.3508 7.20779 12.6275 7.31306 12.7491 7.54448C12.8057 7.65236 12.8395 7.78731 12.837 7.90906C12.7944 9.98471 11.9442 11.6612 10.3071 12.93C9.37614 13.6515 8.3062 14.0475 7.12638 14.1774C7.12638 14.7735 7.12638 15.3646 7.12638 15.9748C7.2013 15.9748 7.26983 15.9748 7.3384 15.9748C7.93972 15.9748 8.54115 15.9719 9.14247 15.976C9.5048 15.9785 9.76963 16.2407 9.77102 16.5857C9.77245 16.9332 9.51063 17.201 9.14887 17.2016C7.38318 17.2047 5.6175 17.2047 3.85177 17.2017C3.49031 17.2011 3.22818 16.933 3.22951 16.5856C3.23084 16.238 3.49246 15.9785 3.85729 15.976C4.45861 15.9719 5.05999 15.9748 5.66136 15.9748C5.73009 15.9748 5.79877 15.9748 5.87666 15.9748Z" fill="black"/>
</g>
</svg>
