<svg width="18" height="18" viewBox="0 0 18 18" fill="none" xmlns="http://www.w3.org/2000/svg">
<path fill-rule="evenodd" clip-rule="evenodd" d="M9.12016 17.1632H8.043C7.1718 17.1632 6.46298 16.4544 6.46298 15.5832V15.2188C6.0926 15.1005 5.73274 14.9511 5.38703 14.7722L5.12878 15.0304C4.50329 15.6567 3.50136 15.6383 2.89404 15.0302L2.13273 14.2689C1.52434 13.6612 1.50684 12.6596 2.13293 12.0342L2.39098 11.7761C2.21207 11.4304 2.06273 11.0706 1.94437 10.7002H1.57999C0.70882 10.7002 0 9.99139 0 9.12019V8.043C0 7.1718 0.70882 6.46301 1.58002 6.46301H1.9444C2.06277 6.0926 2.21211 5.73277 2.39101 5.38706L2.13276 5.12884C1.50704 4.50379 1.52431 3.50209 2.13296 2.89411L2.89434 2.13276C3.50307 1.5232 4.50477 1.50798 5.12904 2.13296L5.38706 2.39098C5.73277 2.21211 6.09263 2.06273 6.46301 1.94437V1.57999C6.46301 0.708786 7.1718 0 8.04303 0H9.12019C9.99139 0 10.7002 0.708786 10.7002 1.57999V1.9444C11.0706 2.06273 11.4304 2.21211 11.7761 2.39101L12.0344 2.13276C12.6599 1.50651 13.6618 1.52488 14.2691 2.13299L15.0304 2.89428C15.6388 3.50199 15.6563 4.50359 15.0302 5.12901L14.7722 5.38706C14.9511 5.73277 15.1004 6.09256 15.2188 6.46301H15.5832C16.4544 6.46301 17.1632 7.1718 17.1632 8.043V9.12019C17.1632 9.99139 16.4544 10.7002 15.5832 10.7002H15.2188C15.1004 11.0706 14.9511 11.4304 14.7722 11.7761L15.0304 12.0344C15.6561 12.6594 15.6389 13.6611 15.0302 14.2691L14.2688 15.0305C13.6601 15.64 12.6584 15.6552 12.0341 15.0303L11.7761 14.7722C11.4304 14.9511 11.0706 15.1005 10.7002 15.2189V15.5833C10.7002 16.4544 9.99139 17.1632 9.12016 17.1632ZM5.55516 13.7161C6.03543 14.0001 6.55233 14.2147 7.0915 14.3539C7.31355 14.4111 7.46869 14.6114 7.46869 14.8407V15.5832C7.46869 15.8998 7.72637 16.1575 8.04305 16.1575H9.12021C9.43689 16.1575 9.69457 15.8998 9.69457 15.5832V14.8407C9.69457 14.6114 9.84971 14.4111 10.0718 14.3539C10.6109 14.2147 11.1278 14.0001 11.6081 13.7161C11.8057 13.5992 12.0573 13.631 12.2196 13.7934L12.7455 14.3193C12.9723 14.5463 13.3364 14.541 13.5576 14.3195L14.3194 13.5577C14.5401 13.3373 14.5474 12.9732 14.3196 12.7456L13.7935 12.2195C13.6312 12.0572 13.5994 11.8056 13.7162 11.608C14.0003 11.1278 14.2148 10.6109 14.3539 10.0717C14.4113 9.84963 14.6115 9.69452 14.8408 9.69452H15.5832C15.8999 9.69452 16.1576 9.43687 16.1576 9.12019V8.043C16.1576 7.72632 15.8999 7.46867 15.5832 7.46867H14.8408C14.6115 7.46867 14.4113 7.31353 14.3539 7.09151C14.2148 6.55232 14.0002 6.03541 13.7162 5.55518C13.5994 5.3576 13.6312 5.10598 13.7935 4.94367L14.3194 4.41775C14.5468 4.19067 14.5408 3.82662 14.3196 3.60568L13.5578 2.8439C13.337 2.62279 12.9728 2.61632 12.7458 2.84369L12.2197 3.36982C12.0574 3.53217 11.8057 3.56394 11.6081 3.44709C11.1279 3.16306 10.611 2.94848 10.0718 2.80933C9.84974 2.75205 9.6946 2.55179 9.6946 2.32246V1.57995C9.6946 1.26327 9.43692 1.00562 9.12024 1.00562H8.04308C7.7264 1.00562 7.46872 1.26327 7.46872 1.57995V2.3224C7.46872 2.55172 7.31358 2.75198 7.09153 2.80927C6.55237 2.94842 6.03546 3.16299 5.55519 3.44702C5.35755 3.56384 5.10596 3.53207 4.94365 3.36975L4.41776 2.84383C4.19102 2.61682 3.82687 2.62208 3.60573 2.84359L2.84388 3.60541C2.62324 3.82578 2.61586 4.18993 2.84368 4.41748L3.3698 4.9436C3.53211 5.10592 3.56389 5.35753 3.44707 5.55511C3.16304 6.03534 2.9485 6.55225 2.80935 7.09145C2.75203 7.3135 2.55177 7.4686 2.32248 7.4686H1.58003C1.26335 7.46864 1.00567 7.72628 1.00567 8.04297V9.12016C1.00567 9.43684 1.26335 9.69449 1.58003 9.69449H2.32244C2.55177 9.69449 2.75199 9.84963 2.80932 10.0716C2.94846 10.6108 3.16304 11.1277 3.44703 11.608C3.56386 11.8056 3.53208 12.0572 3.36977 12.2195L2.84384 12.7454C2.6165 12.9725 2.62243 13.3365 2.84364 13.5575L3.60543 14.3193C3.82623 14.5404 4.19042 14.5468 4.41749 14.3195L4.94358 13.7933C5.06319 13.6738 5.31202 13.5723 5.55516 13.7161H5.55516Z" fill="black"/>
<path fill-rule="evenodd" clip-rule="evenodd" d="M8.58199 12.3163C6.52284 12.3163 4.84766 10.6411 4.84766 8.58199C4.84766 6.52288 6.52284 4.84766 8.58199 4.84766C10.6411 4.84766 12.3163 6.52288 12.3163 8.58199C12.3163 10.6411 10.6411 12.3163 8.58199 12.3163ZM8.58201 5.85328C7.07738 5.85328 5.85333 7.07736 5.85333 8.58196C5.85333 10.0866 7.07741 11.3106 8.58201 11.3106C10.0866 11.3106 11.3107 10.0866 11.3107 8.58196C11.3107 7.07736 10.0866 5.85328 8.58201 5.85328V5.85328Z" fill="black"/>
</svg>
