<svg width="18" height="18" viewBox="0 0 18 18" fill="none" xmlns="http://www.w3.org/2000/svg">
<path fill-rule="evenodd" clip-rule="evenodd" d="M2.2734 4.7607V12.2911H11.2246V4.7607H2.2734ZM2.13132 3.9082H11.3667C11.5551 3.9082 11.7358 3.98305 11.8691 4.11628C12.0023 4.24951 12.0771 4.43021 12.0771 4.61862V12.4332C12.0771 12.6216 12.0023 12.8023 11.8691 12.9355C11.7358 13.0688 11.5551 13.1436 11.3667 13.1436H2.13132C1.9429 13.1436 1.7622 13.0688 1.62897 12.9355C1.49575 12.8023 1.4209 12.6216 1.4209 12.4332V4.61862C1.4209 4.43021 1.49575 4.24951 1.62897 4.11628C1.7622 3.98305 1.9429 3.9082 2.13132 3.9082ZM13.6401 9.53683L15.4871 11.0145V6.03732L13.6401 7.51499V9.53683ZM12.7876 7.10508L15.1852 5.18695C15.2897 5.10333 15.4156 5.0509 15.5486 5.0357C15.6815 5.02051 15.816 5.04316 15.9367 5.10106C16.0573 5.15897 16.1591 5.24976 16.2304 5.36298C16.3017 5.47621 16.3396 5.60727 16.3396 5.74108V11.3107C16.3396 11.4445 16.3017 11.5756 16.2304 11.6888C16.1591 11.8021 16.0573 11.8929 15.9367 11.9508C15.816 12.0087 15.6815 12.0313 15.5486 12.0161C15.4156 12.0009 15.2897 11.9485 15.1852 11.8649L12.7876 9.94674V7.10508Z" fill="black"/>
</svg>
