<svg width="18" height="18" viewBox="0 0 18 18" fill="none" xmlns="http://www.w3.org/2000/svg">
<rect width="17.054" height="17.054" fill="white" fill-opacity="0.01"/>
<mask id="mask0_348_20176" style="mask-type:luminance" maskUnits="userSpaceOnUse" x="0" y="0" width="18" height="18">
<rect width="17.054" height="17.054" fill="white"/>
</mask>
<g mask="url(#mask0_348_20176)">
<path fill-rule="evenodd" clip-rule="evenodd" d="M17.054 12.2576C16.9256 12.6161 16.6816 12.809 16.2902 12.7889C15.9423 12.771 15.6983 12.5525 15.6461 12.2073C15.6329 12.12 15.6307 12.0305 15.6307 11.942C15.6298 10.1717 15.6301 8.40122 15.6301 6.63088C15.6301 6.56689 15.6301 6.5029 15.6301 6.40894C15.5581 6.4569 15.513 6.48474 15.4702 6.51578C14.5097 7.2133 13.5493 7.91108 12.5892 8.60908C12.2165 8.88 11.8409 8.85216 11.5123 8.52698C11.3269 8.3435 11.149 8.15202 10.9571 7.9756C10.7412 7.77706 10.6549 7.53683 10.657 7.24815C10.6624 6.51565 10.6593 5.78305 10.6587 5.05045C10.6582 4.5191 10.4037 4.26413 9.87362 4.26368C9.12441 4.26302 8.37516 4.26581 7.62596 4.26271C7.08635 4.26044 6.77165 3.82802 6.92796 3.31164C7.01099 3.03743 7.2284 2.85106 7.54976 2.84738C8.40962 2.83748 9.27268 2.80484 10.1291 2.86194C11.2949 2.93965 12.069 3.81781 12.0814 4.98784C12.0881 5.62044 12.082 6.25317 12.0838 6.88585C12.084 6.95321 12.0986 7.02044 12.1111 7.12715C12.1997 7.0672 12.2535 7.0327 12.3054 6.99549C13.491 6.14548 14.6759 5.29455 15.8622 4.44548C16.2302 4.18207 16.5562 4.1937 16.8497 4.49459C16.9388 4.58589 16.9871 4.71697 17.0541 4.8298C17.054 7.3057 17.054 9.78165 17.054 12.2576ZM0.866034 0C1.04041 0.131573 1.23189 0.245827 1.38637 0.397648C2.1465 1.14472 2.89695 1.9017 3.65064 2.65534C6.27223 5.27684 8.89378 7.89844 11.5153 10.52C13.2301 12.2348 14.9466 13.9479 16.6569 15.6671C16.8095 15.8206 16.9226 16.0134 17.054 16.188C17.054 16.2879 17.054 16.3878 17.054 16.4877C16.9509 16.7621 16.7739 16.9626 16.4878 17.054C16.3879 17.054 16.288 17.054 16.188 17.054C16.0372 16.9457 15.8682 16.8555 15.7381 16.7264C14.5055 15.5029 13.2796 14.2728 12.0515 13.0448C12.0136 13.0069 11.9731 12.9717 11.9306 12.9323C11.9133 12.9531 11.9004 12.9637 11.8937 12.9774C11.4772 13.8335 10.7746 14.2145 9.84201 14.2145C9.14289 14.2145 8.44374 14.2145 7.74462 14.2145C5.88027 14.2144 4.01587 14.2184 2.15152 14.2128C1.14841 14.2097 0.347561 13.6132 0.0848154 12.6928C0.0531989 12.582 0.0281544 12.4693 4.59212e-05 12.3575C4.59212e-05 9.80382 4.59212e-05 7.25021 4.59212e-05 4.69656C0.0104811 4.66592 0.0246908 4.63604 0.0307743 4.6046C0.199958 3.72724 0.71457 3.16414 1.57057 2.91258C1.65689 2.88718 1.74646 2.87293 1.85592 2.84873C1.35671 2.34961 0.870519 1.87341 0.397471 1.38455C0.247026 1.22909 0.131484 1.03984 0 0.866034C0 0.766123 0 0.666167 0 0.566255C0.0988015 0.287524 0.287124 0.0983575 0.566255 0C0.666166 0 0.766078 0 0.866034 0ZM6.03986 12.7904C6.47281 12.7904 6.90571 12.7904 7.33862 12.7904C8.20448 12.7904 9.07038 12.7926 9.93619 12.7894C10.3818 12.7878 10.6509 12.5167 10.6583 12.0736C10.66 11.9737 10.6687 11.8724 10.6554 11.7744C10.6457 11.704 10.6226 11.6201 10.5751 11.5726C8.16824 9.15994 5.75837 6.7503 3.34602 4.34318C3.30161 4.29886 3.22302 4.26849 3.15956 4.26698C2.84335 4.2593 2.52692 4.26316 2.21053 4.26352C1.67558 4.26418 1.42456 4.51205 1.42438 5.04647C1.4235 7.36655 1.4235 9.68663 1.42438 12.0067C1.42456 12.5409 1.67603 12.7902 2.21018 12.7903C3.48674 12.7907 4.7633 12.7904 6.03986 12.7904Z" fill="white"/>
</g>
</svg>
